<mxfile host="65bd71144e">
    <diagram id="yITl7FX_GImQq4BKGkRN" name="PÃ¡gina-1">
        <mxGraphModel dx="1173" dy="719" grid="1" gridSize="10" guides="1" tooltips="1" connect="1" arrows="1" fold="1" page="1" pageScale="1" pageWidth="827" pageHeight="1169" background="#F4F1DE" math="0" shadow="0">
            <root>
                <mxCell id="0"/>
                <mxCell id="1" parent="0"/>
                <mxCell id="2y7vr3hFKQ3ycM6i9SCM-15" value="" style="group;fontColor=#393C56;" parent="1" vertex="1" connectable="0">
                    <mxGeometry x="144" y="40" width="180" height="150" as="geometry"/>
                </mxCell>
                <mxCell id="nqDEaJfBSwZcffI5wtSR-48" value="ARTICULOS" style="shape=table;startSize=30;container=1;collapsible=0;childLayout=tableLayout;fixedRows=1;rowLines=0;fontStyle=1;align=center;pointerEvents=1;fillColor=#F2CC8F;strokeColor=#E07A5F;fontColor=#393C56;" parent="2y7vr3hFKQ3ycM6i9SCM-15" vertex="1">
                    <mxGeometry width="180" height="150" as="geometry"/>
                </mxCell>
                <mxCell id="nqDEaJfBSwZcffI5wtSR-49" value="" style="shape=partialRectangle;html=1;whiteSpace=wrap;collapsible=0;dropTarget=0;pointerEvents=1;fillColor=none;top=0;left=0;bottom=1;right=0;points=[[0,0.5],[1,0.5]];portConstraint=eastwest;strokeColor=#E07A5F;fontColor=#393C56;" parent="nqDEaJfBSwZcffI5wtSR-48" vertex="1">
                    <mxGeometry y="30" width="180" height="30" as="geometry"/>
                </mxCell>
                <mxCell id="nqDEaJfBSwZcffI5wtSR-50" value="&lt;b&gt;PK&lt;/b&gt;" style="shape=partialRectangle;html=1;whiteSpace=wrap;connectable=0;fillColor=none;top=0;left=0;bottom=0;right=0;overflow=hidden;pointerEvents=1;strokeColor=#E07A5F;fontColor=#393C56;" parent="nqDEaJfBSwZcffI5wtSR-49" vertex="1">
                    <mxGeometry width="40" height="30" as="geometry">
                        <mxRectangle width="40" height="30" as="alternateBounds"/>
                    </mxGeometry>
                </mxCell>
                <mxCell id="nqDEaJfBSwZcffI5wtSR-51" value="&lt;b&gt;idArticulo&lt;/b&gt;" style="shape=partialRectangle;html=1;whiteSpace=wrap;connectable=0;fillColor=none;top=0;left=0;bottom=0;right=0;align=left;spacingLeft=6;overflow=hidden;pointerEvents=1;strokeColor=#E07A5F;fontColor=#393C56;" parent="nqDEaJfBSwZcffI5wtSR-49" vertex="1">
                    <mxGeometry x="40" width="140" height="30" as="geometry">
                        <mxRectangle width="140" height="30" as="alternateBounds"/>
                    </mxGeometry>
                </mxCell>
                <mxCell id="nqDEaJfBSwZcffI5wtSR-52" value="" style="shape=partialRectangle;html=1;whiteSpace=wrap;collapsible=0;dropTarget=0;pointerEvents=1;fillColor=none;top=0;left=0;bottom=0;right=0;points=[[0,0.5],[1,0.5]];portConstraint=eastwest;strokeColor=#E07A5F;fontColor=#393C56;" parent="nqDEaJfBSwZcffI5wtSR-48" vertex="1">
                    <mxGeometry y="60" width="180" height="30" as="geometry"/>
                </mxCell>
                <mxCell id="nqDEaJfBSwZcffI5wtSR-53" value="" style="shape=partialRectangle;html=1;whiteSpace=wrap;connectable=0;fillColor=none;top=0;left=0;bottom=0;right=0;overflow=hidden;pointerEvents=1;strokeColor=#E07A5F;fontColor=#393C56;" parent="nqDEaJfBSwZcffI5wtSR-52" vertex="1">
                    <mxGeometry width="40" height="30" as="geometry">
                        <mxRectangle width="40" height="30" as="alternateBounds"/>
                    </mxGeometry>
                </mxCell>
                <mxCell id="nqDEaJfBSwZcffI5wtSR-54" value="nombre" style="shape=partialRectangle;html=1;whiteSpace=wrap;connectable=0;fillColor=none;top=0;left=0;bottom=0;right=0;align=left;spacingLeft=6;overflow=hidden;pointerEvents=1;strokeColor=#E07A5F;fontColor=#393C56;" parent="nqDEaJfBSwZcffI5wtSR-52" vertex="1">
                    <mxGeometry x="40" width="140" height="30" as="geometry">
                        <mxRectangle width="140" height="30" as="alternateBounds"/>
                    </mxGeometry>
                </mxCell>
                <mxCell id="nqDEaJfBSwZcffI5wtSR-55" value="" style="shape=partialRectangle;html=1;whiteSpace=wrap;collapsible=0;dropTarget=0;pointerEvents=1;fillColor=none;top=0;left=0;bottom=0;right=0;points=[[0,0.5],[1,0.5]];portConstraint=eastwest;strokeColor=#E07A5F;fontColor=#393C56;" parent="nqDEaJfBSwZcffI5wtSR-48" vertex="1">
                    <mxGeometry y="90" width="180" height="30" as="geometry"/>
                </mxCell>
                <mxCell id="nqDEaJfBSwZcffI5wtSR-56" value="" style="shape=partialRectangle;html=1;whiteSpace=wrap;connectable=0;fillColor=none;top=0;left=0;bottom=0;right=0;overflow=hidden;pointerEvents=1;strokeColor=#E07A5F;fontColor=#393C56;" parent="nqDEaJfBSwZcffI5wtSR-55" vertex="1">
                    <mxGeometry width="40" height="30" as="geometry">
                        <mxRectangle width="40" height="30" as="alternateBounds"/>
                    </mxGeometry>
                </mxCell>
                <mxCell id="nqDEaJfBSwZcffI5wtSR-57" value="precio" style="shape=partialRectangle;html=1;whiteSpace=wrap;connectable=0;fillColor=none;top=0;left=0;bottom=0;right=0;align=left;spacingLeft=6;overflow=hidden;pointerEvents=1;strokeColor=#E07A5F;fontColor=#393C56;" parent="nqDEaJfBSwZcffI5wtSR-55" vertex="1">
                    <mxGeometry x="40" width="140" height="30" as="geometry">
                        <mxRectangle width="140" height="30" as="alternateBounds"/>
                    </mxGeometry>
                </mxCell>
                <mxCell id="nqDEaJfBSwZcffI5wtSR-58" value="descripcion" style="shape=partialRectangle;html=1;whiteSpace=wrap;connectable=0;fillColor=none;top=0;left=0;bottom=0;right=0;align=left;spacingLeft=6;overflow=hidden;pointerEvents=1;strokeColor=#E07A5F;fontColor=#393C56;" parent="2y7vr3hFKQ3ycM6i9SCM-15" vertex="1">
                    <mxGeometry x="40" y="120" width="140" height="30" as="geometry">
                        <mxRectangle width="140" height="30" as="alternateBounds"/>
                    </mxGeometry>
                </mxCell>
                <mxCell id="2y7vr3hFKQ3ycM6i9SCM-16" value="" style="group;fontColor=#393C56;" parent="1" vertex="1" connectable="0">
                    <mxGeometry x="504" y="240" width="180" height="150" as="geometry"/>
                </mxCell>
                <mxCell id="2y7vr3hFKQ3ycM6i9SCM-1" value="PEDIDOS" style="shape=table;startSize=30;container=1;collapsible=0;childLayout=tableLayout;fixedRows=1;rowLines=0;fontStyle=1;align=center;pointerEvents=1;fillColor=#F2CC8F;strokeColor=#E07A5F;fontColor=#393C56;" parent="2y7vr3hFKQ3ycM6i9SCM-16" vertex="1">
                    <mxGeometry width="180" height="120" as="geometry"/>
                </mxCell>
                <mxCell id="2y7vr3hFKQ3ycM6i9SCM-2" value="" style="shape=partialRectangle;html=1;whiteSpace=wrap;collapsible=0;dropTarget=0;pointerEvents=1;fillColor=none;top=0;left=0;bottom=1;right=0;points=[[0,0.5],[1,0.5]];portConstraint=eastwest;strokeColor=#E07A5F;fontColor=#393C56;" parent="2y7vr3hFKQ3ycM6i9SCM-1" vertex="1">
                    <mxGeometry y="30" width="180" height="30" as="geometry"/>
                </mxCell>
                <mxCell id="2y7vr3hFKQ3ycM6i9SCM-3" value="&lt;b&gt;PK&lt;/b&gt;" style="shape=partialRectangle;html=1;whiteSpace=wrap;connectable=0;fillColor=none;top=0;left=0;bottom=0;right=0;overflow=hidden;pointerEvents=1;strokeColor=#E07A5F;fontColor=#393C56;" parent="2y7vr3hFKQ3ycM6i9SCM-2" vertex="1">
                    <mxGeometry width="40" height="30" as="geometry">
                        <mxRectangle width="40" height="30" as="alternateBounds"/>
                    </mxGeometry>
                </mxCell>
                <mxCell id="2y7vr3hFKQ3ycM6i9SCM-4" value="&lt;b&gt;idPedido&lt;/b&gt;" style="shape=partialRectangle;html=1;whiteSpace=wrap;connectable=0;fillColor=none;top=0;left=0;bottom=0;right=0;align=left;spacingLeft=6;overflow=hidden;pointerEvents=1;strokeColor=#E07A5F;fontColor=#393C56;" parent="2y7vr3hFKQ3ycM6i9SCM-2" vertex="1">
                    <mxGeometry x="40" width="140" height="30" as="geometry">
                        <mxRectangle width="140" height="30" as="alternateBounds"/>
                    </mxGeometry>
                </mxCell>
                <mxCell id="2y7vr3hFKQ3ycM6i9SCM-5" value="" style="shape=partialRectangle;html=1;whiteSpace=wrap;collapsible=0;dropTarget=0;pointerEvents=1;fillColor=none;top=0;left=0;bottom=0;right=0;points=[[0,0.5],[1,0.5]];portConstraint=eastwest;strokeColor=#E07A5F;fontColor=#393C56;" parent="2y7vr3hFKQ3ycM6i9SCM-1" vertex="1">
                    <mxGeometry y="60" width="180" height="30" as="geometry"/>
                </mxCell>
                <mxCell id="2y7vr3hFKQ3ycM6i9SCM-6" value="" style="shape=partialRectangle;html=1;whiteSpace=wrap;connectable=0;fillColor=none;top=0;left=0;bottom=0;right=0;overflow=hidden;pointerEvents=1;strokeColor=#E07A5F;fontColor=#393C56;" parent="2y7vr3hFKQ3ycM6i9SCM-5" vertex="1">
                    <mxGeometry width="40" height="30" as="geometry">
                        <mxRectangle width="40" height="30" as="alternateBounds"/>
                    </mxGeometry>
                </mxCell>
                <mxCell id="2y7vr3hFKQ3ycM6i9SCM-7" value="fecha" style="shape=partialRectangle;html=1;whiteSpace=wrap;connectable=0;fillColor=none;top=0;left=0;bottom=0;right=0;align=left;spacingLeft=6;overflow=hidden;pointerEvents=1;strokeColor=#E07A5F;fontColor=#393C56;" parent="2y7vr3hFKQ3ycM6i9SCM-5" vertex="1">
                    <mxGeometry x="40" width="140" height="30" as="geometry">
                        <mxRectangle width="140" height="30" as="alternateBounds"/>
                    </mxGeometry>
                </mxCell>
                <mxCell id="2y7vr3hFKQ3ycM6i9SCM-8" value="" style="shape=partialRectangle;html=1;whiteSpace=wrap;collapsible=0;dropTarget=0;pointerEvents=1;fillColor=none;top=0;left=0;bottom=0;right=0;points=[[0,0.5],[1,0.5]];portConstraint=eastwest;strokeColor=#E07A5F;fontColor=#393C56;" parent="2y7vr3hFKQ3ycM6i9SCM-1" vertex="1">
                    <mxGeometry y="90" width="180" height="30" as="geometry"/>
                </mxCell>
                <mxCell id="2y7vr3hFKQ3ycM6i9SCM-9" value="" style="shape=partialRectangle;html=1;whiteSpace=wrap;connectable=0;fillColor=none;top=0;left=0;bottom=0;right=0;overflow=hidden;pointerEvents=1;strokeColor=#E07A5F;fontColor=#393C56;" parent="2y7vr3hFKQ3ycM6i9SCM-8" vertex="1">
                    <mxGeometry width="40" height="30" as="geometry">
                        <mxRectangle width="40" height="30" as="alternateBounds"/>
                    </mxGeometry>
                </mxCell>
                <mxCell id="2y7vr3hFKQ3ycM6i9SCM-10" value="" style="shape=partialRectangle;html=1;whiteSpace=wrap;connectable=0;fillColor=none;top=0;left=0;bottom=0;right=0;align=left;spacingLeft=6;overflow=hidden;pointerEvents=1;strokeColor=#E07A5F;fontColor=#393C56;" parent="2y7vr3hFKQ3ycM6i9SCM-8" vertex="1">
                    <mxGeometry x="40" width="140" height="30" as="geometry">
                        <mxRectangle width="140" height="30" as="alternateBounds"/>
                    </mxGeometry>
                </mxCell>
                <mxCell id="2y7vr3hFKQ3ycM6i9SCM-11" value="idComprador" style="shape=partialRectangle;html=1;whiteSpace=wrap;connectable=0;fillColor=none;top=0;left=0;bottom=0;right=0;align=left;spacingLeft=6;overflow=hidden;pointerEvents=1;strokeColor=#E07A5F;fontColor=#393C56;" parent="2y7vr3hFKQ3ycM6i9SCM-16" vertex="1">
                    <mxGeometry x="40" y="90" width="140" height="30" as="geometry">
                        <mxRectangle width="140" height="30" as="alternateBounds"/>
                    </mxGeometry>
                </mxCell>
                <mxCell id="_0btka0ggfCFEl4Sv_sZ-4" value="FK" style="shape=partialRectangle;html=1;whiteSpace=wrap;connectable=0;fillColor=none;top=0;left=0;bottom=0;right=0;overflow=hidden;pointerEvents=1;strokeColor=#E07A5F;fontColor=#393C56;" parent="2y7vr3hFKQ3ycM6i9SCM-16" vertex="1">
                    <mxGeometry y="90" width="40" height="30" as="geometry">
                        <mxRectangle width="40" height="30" as="alternateBounds"/>
                    </mxGeometry>
                </mxCell>
                <mxCell id="2y7vr3hFKQ3ycM6i9SCM-17" value="" style="group;fontColor=#393C56;" parent="1" vertex="1" connectable="0">
                    <mxGeometry x="504" y="40" width="180" height="150" as="geometry"/>
                </mxCell>
                <mxCell id="nqDEaJfBSwZcffI5wtSR-62" value="COMPRADOR" style="shape=table;startSize=30;container=1;collapsible=0;childLayout=tableLayout;fixedRows=1;rowLines=0;fontStyle=1;align=center;pointerEvents=1;fillColor=#F2CC8F;strokeColor=#E07A5F;fontColor=#393C56;" parent="2y7vr3hFKQ3ycM6i9SCM-17" vertex="1">
                    <mxGeometry width="180" height="150" as="geometry"/>
                </mxCell>
                <mxCell id="nqDEaJfBSwZcffI5wtSR-63" value="" style="shape=partialRectangle;html=1;whiteSpace=wrap;collapsible=0;dropTarget=0;pointerEvents=1;fillColor=none;top=0;left=0;bottom=1;right=0;points=[[0,0.5],[1,0.5]];portConstraint=eastwest;strokeColor=#E07A5F;fontColor=#393C56;" parent="nqDEaJfBSwZcffI5wtSR-62" vertex="1">
                    <mxGeometry y="30" width="180" height="30" as="geometry"/>
                </mxCell>
                <mxCell id="nqDEaJfBSwZcffI5wtSR-64" value="&lt;b&gt;PK&lt;/b&gt;" style="shape=partialRectangle;html=1;whiteSpace=wrap;connectable=0;fillColor=none;top=0;left=0;bottom=0;right=0;overflow=hidden;pointerEvents=1;strokeColor=#E07A5F;fontColor=#393C56;" parent="nqDEaJfBSwZcffI5wtSR-63" vertex="1">
                    <mxGeometry width="40" height="30" as="geometry">
                        <mxRectangle width="40" height="30" as="alternateBounds"/>
                    </mxGeometry>
                </mxCell>
                <mxCell id="nqDEaJfBSwZcffI5wtSR-65" value="&lt;span&gt;&lt;b&gt;idComprador&lt;/b&gt;&lt;/span&gt;" style="shape=partialRectangle;html=1;whiteSpace=wrap;connectable=0;fillColor=none;top=0;left=0;bottom=0;right=0;align=left;spacingLeft=6;overflow=hidden;pointerEvents=1;strokeColor=#E07A5F;fontColor=#393C56;" parent="nqDEaJfBSwZcffI5wtSR-63" vertex="1">
                    <mxGeometry x="40" width="140" height="30" as="geometry">
                        <mxRectangle width="140" height="30" as="alternateBounds"/>
                    </mxGeometry>
                </mxCell>
                <mxCell id="nqDEaJfBSwZcffI5wtSR-66" value="" style="shape=partialRectangle;html=1;whiteSpace=wrap;collapsible=0;dropTarget=0;pointerEvents=1;fillColor=none;top=0;left=0;bottom=0;right=0;points=[[0,0.5],[1,0.5]];portConstraint=eastwest;strokeColor=#E07A5F;fontColor=#393C56;" parent="nqDEaJfBSwZcffI5wtSR-62" vertex="1">
                    <mxGeometry y="60" width="180" height="30" as="geometry"/>
                </mxCell>
                <mxCell id="nqDEaJfBSwZcffI5wtSR-67" value="" style="shape=partialRectangle;html=1;whiteSpace=wrap;connectable=0;fillColor=none;top=0;left=0;bottom=0;right=0;overflow=hidden;pointerEvents=1;strokeColor=#E07A5F;fontColor=#393C56;" parent="nqDEaJfBSwZcffI5wtSR-66" vertex="1">
                    <mxGeometry width="40" height="30" as="geometry">
                        <mxRectangle width="40" height="30" as="alternateBounds"/>
                    </mxGeometry>
                </mxCell>
                <mxCell id="nqDEaJfBSwZcffI5wtSR-68" value="nombre" style="shape=partialRectangle;html=1;whiteSpace=wrap;connectable=0;fillColor=none;top=0;left=0;bottom=0;right=0;align=left;spacingLeft=6;overflow=hidden;pointerEvents=1;strokeColor=#E07A5F;fontColor=#393C56;" parent="nqDEaJfBSwZcffI5wtSR-66" vertex="1">
                    <mxGeometry x="40" width="140" height="30" as="geometry">
                        <mxRectangle width="140" height="30" as="alternateBounds"/>
                    </mxGeometry>
                </mxCell>
                <mxCell id="nqDEaJfBSwZcffI5wtSR-69" value="" style="shape=partialRectangle;html=1;whiteSpace=wrap;collapsible=0;dropTarget=0;pointerEvents=1;fillColor=none;top=0;left=0;bottom=0;right=0;points=[[0,0.5],[1,0.5]];portConstraint=eastwest;strokeColor=#E07A5F;fontColor=#393C56;" parent="nqDEaJfBSwZcffI5wtSR-62" vertex="1">
                    <mxGeometry y="90" width="180" height="30" as="geometry"/>
                </mxCell>
                <mxCell id="nqDEaJfBSwZcffI5wtSR-70" value="" style="shape=partialRectangle;html=1;whiteSpace=wrap;connectable=0;fillColor=none;top=0;left=0;bottom=0;right=0;overflow=hidden;pointerEvents=1;strokeColor=#E07A5F;fontColor=#393C56;" parent="nqDEaJfBSwZcffI5wtSR-69" vertex="1">
                    <mxGeometry width="40" height="30" as="geometry">
                        <mxRectangle width="40" height="30" as="alternateBounds"/>
                    </mxGeometry>
                </mxCell>
                <mxCell id="nqDEaJfBSwZcffI5wtSR-71" value="&lt;span style=&quot;text-align: center&quot;&gt;dni (NULL)&lt;/span&gt;" style="shape=partialRectangle;html=1;whiteSpace=wrap;connectable=0;fillColor=none;top=0;left=0;bottom=0;right=0;align=left;spacingLeft=6;overflow=hidden;pointerEvents=1;strokeColor=#E07A5F;fontColor=#393C56;" parent="nqDEaJfBSwZcffI5wtSR-69" vertex="1">
                    <mxGeometry x="40" width="140" height="30" as="geometry">
                        <mxRectangle width="140" height="30" as="alternateBounds"/>
                    </mxGeometry>
                </mxCell>
                <mxCell id="nqDEaJfBSwZcffI5wtSR-72" value="direccion" style="shape=partialRectangle;html=1;whiteSpace=wrap;connectable=0;fillColor=none;top=0;left=0;bottom=0;right=0;align=left;spacingLeft=6;overflow=hidden;pointerEvents=1;strokeColor=#E07A5F;fontColor=#393C56;" parent="2y7vr3hFKQ3ycM6i9SCM-17" vertex="1">
                    <mxGeometry x="40" y="120" width="140" height="30" as="geometry">
                        <mxRectangle width="140" height="30" as="alternateBounds"/>
                    </mxGeometry>
                </mxCell>
                <mxCell id="2" value="&lt;b&gt;U&lt;/b&gt;" style="text;html=1;align=center;verticalAlign=middle;resizable=0;points=[];autosize=1;strokeColor=none;" vertex="1" parent="2y7vr3hFKQ3ycM6i9SCM-17">
                    <mxGeometry x="10" y="125" width="20" height="20" as="geometry"/>
                </mxCell>
                <mxCell id="2y7vr3hFKQ3ycM6i9SCM-30" value="ARTICULOS_PEDIDOSÂ " style="shape=table;startSize=30;container=1;collapsible=1;childLayout=tableLayout;fixedRows=1;rowLines=0;fontStyle=1;align=center;resizeLast=1;fillColor=#F2CC8F;strokeColor=#E07A5F;fontColor=#393C56;" parent="1" vertex="1">
                    <mxGeometry x="144" y="240" width="180" height="180" as="geometry">
                        <mxRectangle x="120" y="680" width="170" height="30" as="alternateBounds"/>
                    </mxGeometry>
                </mxCell>
                <mxCell id="2y7vr3hFKQ3ycM6i9SCM-31" value="" style="shape=partialRectangle;collapsible=0;dropTarget=0;pointerEvents=0;fillColor=none;top=0;left=0;bottom=0;right=0;points=[[0,0.5],[1,0.5]];portConstraint=eastwest;strokeColor=#E07A5F;fontColor=#393C56;" parent="2y7vr3hFKQ3ycM6i9SCM-30" vertex="1">
                    <mxGeometry y="30" width="180" height="30" as="geometry"/>
                </mxCell>
                <mxCell id="2y7vr3hFKQ3ycM6i9SCM-32" value="PK,FK" style="shape=partialRectangle;connectable=0;fillColor=none;top=0;left=0;bottom=0;right=0;fontStyle=1;overflow=hidden;strokeColor=#E07A5F;fontColor=#393C56;" parent="2y7vr3hFKQ3ycM6i9SCM-31" vertex="1">
                    <mxGeometry width="60" height="30" as="geometry">
                        <mxRectangle width="60" height="30" as="alternateBounds"/>
                    </mxGeometry>
                </mxCell>
                <mxCell id="2y7vr3hFKQ3ycM6i9SCM-33" value="idArticulos" style="shape=partialRectangle;connectable=0;fillColor=none;top=0;left=0;bottom=0;right=0;align=left;spacingLeft=6;fontStyle=5;overflow=hidden;strokeColor=#E07A5F;fontColor=#393C56;" parent="2y7vr3hFKQ3ycM6i9SCM-31" vertex="1">
                    <mxGeometry x="60" width="120" height="30" as="geometry">
                        <mxRectangle width="120" height="30" as="alternateBounds"/>
                    </mxGeometry>
                </mxCell>
                <mxCell id="2y7vr3hFKQ3ycM6i9SCM-34" value="" style="shape=partialRectangle;collapsible=0;dropTarget=0;pointerEvents=0;fillColor=none;top=0;left=0;bottom=1;right=0;points=[[0,0.5],[1,0.5]];portConstraint=eastwest;strokeColor=#E07A5F;fontColor=#393C56;" parent="2y7vr3hFKQ3ycM6i9SCM-30" vertex="1">
                    <mxGeometry y="60" width="180" height="30" as="geometry"/>
                </mxCell>
                <mxCell id="2y7vr3hFKQ3ycM6i9SCM-35" value="PK,FK" style="shape=partialRectangle;connectable=0;fillColor=none;top=0;left=0;bottom=0;right=0;fontStyle=1;overflow=hidden;strokeColor=#E07A5F;fontColor=#393C56;" parent="2y7vr3hFKQ3ycM6i9SCM-34" vertex="1">
                    <mxGeometry width="60" height="30" as="geometry">
                        <mxRectangle width="60" height="30" as="alternateBounds"/>
                    </mxGeometry>
                </mxCell>
                <mxCell id="2y7vr3hFKQ3ycM6i9SCM-36" value="idPedidos" style="shape=partialRectangle;connectable=0;fillColor=none;top=0;left=0;bottom=0;right=0;align=left;spacingLeft=6;fontStyle=5;overflow=hidden;strokeColor=#E07A5F;fontColor=#393C56;" parent="2y7vr3hFKQ3ycM6i9SCM-34" vertex="1">
                    <mxGeometry x="60" width="120" height="30" as="geometry">
                        <mxRectangle width="120" height="30" as="alternateBounds"/>
                    </mxGeometry>
                </mxCell>
                <mxCell id="2y7vr3hFKQ3ycM6i9SCM-37" value="" style="shape=partialRectangle;collapsible=0;dropTarget=0;pointerEvents=0;fillColor=none;top=0;left=0;bottom=0;right=0;points=[[0,0.5],[1,0.5]];portConstraint=eastwest;strokeColor=#E07A5F;fontColor=#393C56;" parent="2y7vr3hFKQ3ycM6i9SCM-30" vertex="1">
                    <mxGeometry y="90" width="180" height="30" as="geometry"/>
                </mxCell>
                <mxCell id="2y7vr3hFKQ3ycM6i9SCM-38" value="" style="shape=partialRectangle;connectable=0;fillColor=none;top=0;left=0;bottom=0;right=0;editable=1;overflow=hidden;strokeColor=#E07A5F;fontColor=#393C56;" parent="2y7vr3hFKQ3ycM6i9SCM-37" vertex="1">
                    <mxGeometry width="60" height="30" as="geometry">
                        <mxRectangle width="60" height="30" as="alternateBounds"/>
                    </mxGeometry>
                </mxCell>
                <mxCell id="2y7vr3hFKQ3ycM6i9SCM-39" value="cantidad" style="shape=partialRectangle;connectable=0;fillColor=none;top=0;left=0;bottom=0;right=0;align=left;spacingLeft=6;overflow=hidden;strokeColor=#E07A5F;fontColor=#393C56;" parent="2y7vr3hFKQ3ycM6i9SCM-37" vertex="1">
                    <mxGeometry x="60" width="120" height="30" as="geometry">
                        <mxRectangle width="120" height="30" as="alternateBounds"/>
                    </mxGeometry>
                </mxCell>
                <mxCell id="2y7vr3hFKQ3ycM6i9SCM-40" value="" style="shape=partialRectangle;collapsible=0;dropTarget=0;pointerEvents=0;fillColor=none;top=0;left=0;bottom=0;right=0;points=[[0,0.5],[1,0.5]];portConstraint=eastwest;strokeColor=#E07A5F;fontColor=#393C56;" parent="2y7vr3hFKQ3ycM6i9SCM-30" vertex="1">
                    <mxGeometry y="120" width="180" height="30" as="geometry"/>
                </mxCell>
                <mxCell id="2y7vr3hFKQ3ycM6i9SCM-41" value="" style="shape=partialRectangle;connectable=0;fillColor=none;top=0;left=0;bottom=0;right=0;editable=1;overflow=hidden;strokeColor=#E07A5F;fontColor=#393C56;" parent="2y7vr3hFKQ3ycM6i9SCM-40" vertex="1">
                    <mxGeometry width="60" height="30" as="geometry">
                        <mxRectangle width="60" height="30" as="alternateBounds"/>
                    </mxGeometry>
                </mxCell>
                <mxCell id="2y7vr3hFKQ3ycM6i9SCM-42" value="precioCompra" style="shape=partialRectangle;connectable=0;fillColor=none;top=0;left=0;bottom=0;right=0;align=left;spacingLeft=6;overflow=hidden;strokeColor=#E07A5F;fontColor=#393C56;" parent="2y7vr3hFKQ3ycM6i9SCM-40" vertex="1">
                    <mxGeometry x="60" width="120" height="30" as="geometry">
                        <mxRectangle width="120" height="30" as="alternateBounds"/>
                    </mxGeometry>
                </mxCell>
                <mxCell id="_0btka0ggfCFEl4Sv_sZ-1" style="edgeStyle=orthogonalEdgeStyle;rounded=0;orthogonalLoop=1;jettySize=auto;html=1;entryX=0;entryY=0.5;entryDx=0;entryDy=0;labelBackgroundColor=#F4F1DE;strokeColor=#E07A5F;fontColor=#393C56;" parent="1" source="nqDEaJfBSwZcffI5wtSR-49" target="2y7vr3hFKQ3ycM6i9SCM-31" edge="1">
                    <mxGeometry relative="1" as="geometry"/>
                </mxCell>
                <mxCell id="_0btka0ggfCFEl4Sv_sZ-2" style="edgeStyle=orthogonalEdgeStyle;rounded=0;orthogonalLoop=1;jettySize=auto;html=1;entryX=1;entryY=0.5;entryDx=0;entryDy=0;labelBackgroundColor=#F4F1DE;strokeColor=#E07A5F;fontColor=#393C56;" parent="1" source="2y7vr3hFKQ3ycM6i9SCM-2" target="2y7vr3hFKQ3ycM6i9SCM-34" edge="1">
                    <mxGeometry relative="1" as="geometry"/>
                </mxCell>
                <mxCell id="_0btka0ggfCFEl4Sv_sZ-3" style="edgeStyle=orthogonalEdgeStyle;rounded=0;orthogonalLoop=1;jettySize=auto;html=1;labelBackgroundColor=#F4F1DE;strokeColor=#E07A5F;fontColor=#393C56;" parent="1" source="nqDEaJfBSwZcffI5wtSR-63" edge="1">
                    <mxGeometry relative="1" as="geometry">
                        <mxPoint x="684" y="340" as="targetPoint"/>
                        <Array as="points">
                            <mxPoint x="704" y="85"/>
                            <mxPoint x="704" y="340"/>
                        </Array>
                    </mxGeometry>
                </mxCell>
                <mxCell id="_0btka0ggfCFEl4Sv_sZ-7" value="1" style="text;html=1;align=center;verticalAlign=middle;resizable=0;points=[];autosize=1;strokeColor=none;fillColor=none;fontColor=#393C56;" parent="1" vertex="1">
                    <mxGeometry x="124" y="60" width="20" height="20" as="geometry"/>
                </mxCell>
                <mxCell id="_0btka0ggfCFEl4Sv_sZ-8" value="N" style="text;html=1;align=center;verticalAlign=middle;resizable=0;points=[];autosize=1;strokeColor=none;fillColor=none;fontColor=#393C56;" parent="1" vertex="1">
                    <mxGeometry x="124" y="290" width="20" height="20" as="geometry"/>
                </mxCell>
                <mxCell id="_0btka0ggfCFEl4Sv_sZ-9" value="1" style="text;html=1;align=center;verticalAlign=middle;resizable=0;points=[];autosize=1;strokeColor=none;fillColor=none;fontColor=#393C56;" parent="1" vertex="1">
                    <mxGeometry x="684" y="60" width="20" height="20" as="geometry"/>
                </mxCell>
                <mxCell id="_0btka0ggfCFEl4Sv_sZ-10" value="N" style="text;html=1;align=center;verticalAlign=middle;resizable=0;points=[];autosize=1;strokeColor=none;fillColor=none;fontColor=#393C56;" parent="1" vertex="1">
                    <mxGeometry x="684" y="350" width="20" height="20" as="geometry"/>
                </mxCell>
                <mxCell id="_0btka0ggfCFEl4Sv_sZ-11" value="1" style="text;html=1;align=center;verticalAlign=middle;resizable=0;points=[];autosize=1;strokeColor=none;fillColor=none;fontColor=#393C56;" parent="1" vertex="1">
                    <mxGeometry x="484" y="260" width="20" height="20" as="geometry"/>
                </mxCell>
                <mxCell id="_0btka0ggfCFEl4Sv_sZ-12" value="N" style="text;html=1;align=center;verticalAlign=middle;resizable=0;points=[];autosize=1;strokeColor=none;fillColor=none;fontColor=#393C56;" parent="1" vertex="1">
                    <mxGeometry x="324" y="290" width="20" height="20" as="geometry"/>
                </mxCell>
                <mxCell id="16" value="totalCompra" style="shape=partialRectangle;connectable=0;fillColor=none;top=0;left=0;bottom=0;right=0;align=left;spacingLeft=6;overflow=hidden;strokeColor=#E07A5F;fontColor=#393C56;" vertex="1" parent="1">
                    <mxGeometry x="204" y="390" width="120" height="30" as="geometry">
                        <mxRectangle width="120" height="30" as="alternateBounds"/>
                    </mxGeometry>
                </mxCell>
            </root>
        </mxGraphModel>
    </diagram>
</mxfile>